<svg width="225" height="225" viewBox="0 0 225 225" fill="none" xmlns="http://www.w3.org/2000/svg">
<rect width="225" height="225" fill="#CCFF00"/>
<path d="M83.3163 141.165C83.6558 140.48 85.3535 137.285 85.8103 136.486L85.9214 136.372C97.3852 115.259 111.343 95.4012 127.461 77.2554L127.912 76.7989C128.029 76.6847 128.029 76.4565 127.912 76.2283C127.801 76 127.573 76 127.461 76L126.776 76.1141C116.226 77.4836 105.559 79.5379 95.0023 81.9345C93.9837 82.1628 93.2985 82.8475 93.1873 83.0757C85.3534 92.3198 77.8653 101.906 70.945 111.835C70.6055 112.291 70.4882 112.976 70.6055 113.547C70.7167 114.118 72.3031 126.443 74.8033 135.916C68.5621 153.376 63 176.315 63 176.315C63 176.429 63 176.658 63.1112 176.772C63.2284 176.886 63.3395 177 63.5679 177H67.0867C67.309 177 67.5373 176.886 67.6546 176.658L67.8769 175.973C71.513 166.387 75.5935 156.914 80.137 147.67C81.0445 145.502 83.3163 141.165 83.3163 141.165Z" fill="black"/>
<path d="M133.058 81.1951V80.5065C133.058 80.277 132.945 80.1623 132.715 80.0475C132.485 79.9328 132.254 80.0475 132.142 80.1623L131.682 80.6213C112.799 101.966 96.7741 125.491 84.416 150.738L84.0736 151.311C83.9616 151.541 83.9615 151.77 84.1856 151.885C84.3039 152 84.416 152 84.5281 152C84.6464 152 84.6464 152 84.7585 152L85.3312 151.77C95.9772 147.525 106.847 143.737 117.605 140.754C118.29 140.524 118.751 140.18 119.093 139.606C123.788 130.655 134.776 113.327 134.776 113.327C135 112.983 135 112.409 135 112.409C135 112.409 133.17 91.6379 133.058 81.1951Z" fill="black"/>
<path d="M157.087 51.4258C154.461 49.1471 150.471 48.1217 144.538 48.0078C139.065 47.8938 132.561 49.0332 125.145 51.4258C124.003 51.7676 123.091 52.4512 122.408 53.1348C114.875 59.9708 107.577 67.1486 100.732 74.6683L100.161 75.2379C100.049 75.3519 99.9311 75.5797 100.049 75.8076C100.161 76.0355 100.39 76.0355 100.62 76.0355L101.414 75.9215C112.479 73.6429 123.774 71.8199 134.727 70.6805C135.41 70.5666 136.21 70.7945 136.781 71.3642C137.352 71.9338 137.582 72.5035 137.582 73.3011C137.352 83.8969 137.811 94.4927 138.724 104.861V105.544C138.724 105.772 138.947 105.886 139.065 106H139.177C139.288 106 139.518 105.886 139.636 105.772L139.977 105.202C146.133 96.6575 152.978 88.3403 160.053 80.4789C160.854 79.5674 161.083 78.9977 161.195 78.2002C163.59 64.3003 160.171 54.0463 157.087 51.4258Z" fill="black"/>
</svg>
