<svg width="1288" height="405" viewBox="0 0 1288 405" fill="none" xmlns="http://www.w3.org/2000/svg">
<path d="M249.958 0C294.125 112.833 338.625 225.542 383.5 338.083C391.042 357.042 397.75 369.292 403.542 374.833C414.375 385.208 428.042 390.875 444.542 391.917C445.75 392 446.5 392.625 446.792 393.792L447.208 395.625C447.5 396.792 446.625 397.917 445.417 397.917H282.667C281.125 397.917 280.333 397.125 280.333 395.542V393.917C280.333 392.833 280.875 392.25 281.958 392.167C299.542 390.708 327 384.167 320.958 359.417C317.25 344.042 313.5 331.083 309.792 320.542C301.292 296.5 290.583 268.5 277.667 236.583C277.25 235.5 276.083 234.917 274.958 235.167L112.708 274.25C111.667 274.542 110.917 275.167 110.458 276.167C98.75 303.042 88.708 330.333 80.25 357.958C79.083 361.833 78.792 365.583 79.375 369.208C82.333 387.042 105.5 390.708 126.083 392.208C127.083 392.292 127.708 392.792 127.917 393.75L128.167 394.792C128.625 396.625 127.25 398.375 125.375 398.375L0 398.333V392.083C24.958 390.75 42.167 379.375 51.708 357.917C93.958 262.75 138.958 161.25 186.75 53.458C188.75 48.917 189.583 45.417 189.292 42.875C188.375 35.333 179.625 30.25 174.25 28.125C164.292 24.167 164.458 20.875 174.75 18.292L247.708 0L249.958 0ZM269.5 221.125C270.333 220.917 270.792 220.042 270.458 219.208L205.625 58.542C205.125 57.375 203.5 57.333 203 58.5L119.042 255.042C118.583 256.083 119.542 257.25 120.667 256.958L269.5 221.125Z" fill="black"/>
<path d="M1287.5 391.583V398.333L1145.29 398.375C1144.08 398.375 1143.46 397.75 1143.46 396.542V395.375C1143.5 393.333 1144.5 392.208 1146.54 392C1154.42 391.125 1160.29 389.792 1164.08 388.042C1180 380.75 1187.96 369.5 1188 354.25C1188.08 210.708 1188.08 109.25 1188 49.7922C1188 38.2922 1172.08 30.4172 1162.29 28.0002C1160.87 27.6252 1160.13 26.7502 1160.08 25.2922C1160 23.9582 1160.21 22.7502 1160.67 21.6252C1161.17 20.4172 1162.08 19.6252 1163.38 19.3332L1241.42 0.500215C1242.62 0.208215 1243.25 0.708215 1243.25 1.91722C1243.25 134.292 1243.21 250.292 1243.17 349.917C1243.12 377.167 1257.92 391.042 1287.5 391.583Z" fill="black"/>
<path d="M554.125 139.125C499.542 133.5 468.417 188.417 463.375 235.167C457.708 287.542 476.25 343.583 530.417 362.208C565.375 374.25 599.875 371.167 633.917 353C640.958 349.208 644.333 344.458 649.75 339.833C650.917 338.792 652.75 339.375 653.167 340.875C653.25 341.333 653.333 341.667 653.417 341.958C654.042 344.542 653.542 346.875 651.875 349C617.083 392.333 563.458 411.875 509.583 400.792C431.833 384.708 378.333 305.333 404.292 226.167C420.75 175.667 462.708 141.292 514.958 132.458C545.292 127.292 574.75 131.708 603.333 145.708C623.208 155.458 637.875 170.167 647.25 189.75C648.042 191.333 647.125 193.25 645.417 193.625L594.5 205.625C592.042 206.208 591.083 205.292 591.542 202.833C597.5 173.125 587.417 142.583 554.125 139.125Z" fill="black"/>
<path d="M806.375 139.125C751.75 133.75 720.875 188.875 716.042 235.667C710.667 288.125 729.5 344.125 783.792 362.458C818.833 374.333 853.333 371.083 887.292 352.708C894.333 348.917 897.708 344.125 903.083 339.458C904.25 338.458 906.083 339 906.5 340.5C906.625 340.958 906.708 341.292 906.75 341.583C907.417 344.167 906.917 346.5 905.25 348.625C870.667 392.167 817.125 412 763.125 401.167C685.25 385.5 631.333 306.333 656.875 226.958C673.125 176.375 714.917 141.75 767.167 132.625C797.5 127.333 827 131.583 855.667 145.458C875.625 155.125 890.333 169.75 899.833 189.292C900.625 190.875 899.708 192.792 898 193.208L847.125 205.458C844.667 206.083 843.708 205.125 844.167 202.667C849.958 172.917 839.708 142.417 806.375 139.125Z" fill="black"/>
<path d="M967.708 266C971 310.75 990.75 341.708 1026.96 358.833C1060.83 374.833 1104.17 371.667 1136.63 354.375C1142.21 351.417 1148.17 346.583 1154.54 339.792C1156.21 338.042 1157.33 338.333 1157.88 340.667L1158.38 342.833C1158.96 345.167 1158.38 347.667 1156.79 349.5C1136.58 372.875 1115.71 388.125 1094.13 395.25C1038.75 413.542 989.583 404.125 946.583 367C921.292 345.167 904.25 309.292 902.75 274.292C900.792 229.833 916.958 193 951.208 163.792C995.792 125.833 1062.58 119.792 1113.46 149.208C1138.83 163.875 1154 185.875 1159 215.25C1159.21 216.625 1158.67 217.458 1157.33 217.75L969.958 262.917C968.333 263.292 967.583 264.333 967.708 266ZM984.042 182C972.333 202.708 966.625 223.917 967 245.625C967.042 247.125 967.792 247.708 969.25 247.333C1001.58 239.583 1038 230.833 1078.54 221.125C1102.38 215.375 1099.17 179.583 1092.88 163.083C1089.33 153.833 1078.92 144.208 1069.67 141.542C1033.5 131.125 1001.83 150.667 984.042 182Z" fill="black"/>
</svg>
