<svg width="41" height="51" viewBox="0 0 41 51" fill="none" xmlns="http://www.w3.org/2000/svg">
<path d="M39.1656 23.9075C34.7395 24.9978 28.7185 25.8206 20.3827 25.8206C11.85 25.8206 6.02673 24.9978 1.60073 23.9075C-1.62901 23.1113 -1.60959 7.27016 17.6244 5.8645C18.7378 4.3217 18.1228 1.29438 17.4284 0.436412C17.2788 0.252133 17.452 -0.030713 17.6818 0.00271438C18.0713 0.0566116 18.4522 0.162078 18.8147 0.316417C21.7716 1.59094 23.2314 5.09224 23.5525 5.9005C42.3683 7.50415 42.3716 23.119 39.1656 23.9075ZM37.1211 27.0849C34.5866 27.6086 28.2083 28.6148 20.3683 28.6148C12.5284 28.6148 6.15345 27.6068 3.62406 27.084C3.47247 27.0524 3.31596 27.0539 3.16501 27.0886C3.01406 27.1232 2.87214 27.1902 2.74874 27.2849C2.62534 27.3797 2.5233 27.5001 2.44945 27.6381C2.3756 27.7761 2.33164 27.9285 2.3205 28.0851C2.01383 32.3981 2.23603 45.9644 17.6801 48.6558C18.5064 49.3697 19.8767 51.0077 20.3759 51C20.8752 51.0077 22.2455 49.3715 23.0709 48.6558C38.4001 45.6704 38.7085 32.3707 38.4246 28.0945C38.4144 27.9373 38.3711 27.7842 38.2977 27.6454C38.2242 27.5065 38.1223 27.3853 37.9988 27.2898C37.8753 27.1943 37.7331 27.1267 37.5817 27.0917C37.4303 27.0566 37.2732 27.0549 37.1211 27.0866V27.0849Z" fill="#74C947"/>
</svg>
