<svg width="222" height="200" viewBox="0 0 222 200" fill="none" xmlns="http://www.w3.org/2000/svg">
<path d="M221.639 145.574C221.639 146.921 221.373 148.256 220.858 149.501C220.342 150.746 219.586 151.878 218.633 152.831L172.674 198.789C170.088 201.376 165.666 199.543 165.666 195.886V92.9036L221 37.8795H221.639V145.574Z" fill="#E83860"/>
<path d="M184.965 1.20331C184.584 0.821838 184.131 0.519217 183.633 0.312745C183.135 0.106273 182.601 0 182.062 0C181.523 0 180.989 0.106273 180.491 0.312745C179.992 0.519217 179.54 0.821838 179.159 1.20331L110.82 69.5423H109.871V146.673L110.82 148.699L165.667 93.8523L221.639 37.8795L184.965 1.20331Z" fill="#DFC586"/>
<path d="M0 145.574C0 148.296 1.08033 150.905 3.00544 152.831L48.9644 198.789C51.5507 201.376 55.9727 199.543 55.9727 195.886V92.9036L0.636826 37.8795H0V145.574Z" fill="#327787"/>
<path d="M42.4807 1.20337C42.0995 0.822091 41.6469 0.51964 41.1488 0.31329C40.6507 0.10694 40.1168 0.000732422 39.5776 0.000732422C39.0385 0.000732422 38.5046 0.10694 38.0065 0.31329C37.5083 0.51964 37.0558 0.822091 36.6745 1.20337L0 37.8796L55.9727 93.8523L110.82 148.698V69.5423L42.4807 1.20337Z" fill="#8ABB9C"/>
</svg>
