<svg width="25" height="20" viewBox="0 0 25 20" fill="none" xmlns="http://www.w3.org/2000/svg">
<path d="M16.1625 1.6C15.19 2.9 14.955 3.33313 14.0163 3.33313H0V20H5.49937C6.74 20 7.94688 19.4 8.71813 18.4C9.72438 17.0669 9.85813 16.6669 10.8306 16.6669H24.8806V0H19.3475C18.1069 0 16.9006 0.6 16.1625 1.6ZM20.5212 12.3669H14.6531C13.3787 12.3669 12.2056 12.9 11.4344 13.9331C10.4281 15.2669 10.2269 15.6669 9.28813 15.6669H4.32562V7.66687H10.1937C11.4675 7.66687 12.6412 7.06687 13.4125 6.06687C14.4187 4.76688 14.6869 4.36688 15.5919 4.36688H20.5212V12.3669Z" fill="#212121"/>
</svg>