<svg width="51" height="51" viewBox="0 0 51 51" fill="none" xmlns="http://www.w3.org/2000/svg">
<rect x="0.5" y="0.5" width="50" height="50" rx="25" fill="#1B2A39"/>
<rect x="0.5" y="0.5" width="50" height="50" rx="25" stroke="white"/>
<path fill-rule="evenodd" clip-rule="evenodd" d="M25.4999 30.3659C20.6635 30.3659 16.728 26.1988 16.728 21.0676C16.728 15.9365 20.6635 11.7629 25.4999 11.7629C30.3363 11.7629 34.2717 15.943 34.2717 21.0676C34.2717 26.1924 30.3363 30.3659 25.4999 30.3659ZM34.2717 13.277C33.2158 11.9482 31.8804 10.8747 30.363 10.1348C28.8455 9.39487 27.1841 9.00719 25.4999 9C19.1558 9 14 14.4094 14 21.0676C14 27.7259 19.1558 33.1353 25.4999 33.1353C27.182 33.1313 28.8421 32.7476 30.3595 32.0122C31.8768 31.2768 33.2133 30.2082 34.2717 28.8841V29.9323C34.2871 32.3813 33.3424 34.7364 31.6452 36.4809C29.948 38.2253 27.6368 39.2166 25.2187 39.237C23.9132 39.2367 22.6236 38.9469 21.4404 38.388C20.2573 37.829 19.2092 37.0146 18.37 36.0017H15.0478C16.0735 37.8183 17.5537 39.3291 19.3392 40.3821C21.1247 41.4351 23.1526 41.9931 25.2187 42C28.3642 41.9778 31.3722 40.6914 33.5815 38.4235C35.7906 36.1557 37.0202 33.0922 36.9997 29.9065V9.66648H34.2717V13.277Z" fill="white"/>
</svg>
