<svg width="163" height="200" viewBox="0 0 163 200" fill="none" xmlns="http://www.w3.org/2000/svg">
<path d="M151.402 144.8L163 166.362L81.5137 200L0 166.362L11.6253 144.8L81.5137 174.049L151.402 144.8ZM81.5137 0C124.678 0 159.69 33.9103 159.69 75.7258C159.69 117.541 124.705 151.452 81.5137 151.452C38.3224 151.452 3.30978 117.541 3.30978 75.7258C3.30978 33.9103 38.3224 0 81.5137 0ZM81.5137 23.4428C51.6436 23.4428 27.463 46.8584 27.463 75.7803C27.463 104.702 51.6709 128.145 81.5137 128.145C111.356 128.145 135.564 104.729 135.564 75.8075C135.564 46.8856 111.384 23.4428 81.5137 23.4428Z" fill="black"/>
</svg>
