<?xml version="1.0" encoding="UTF-8" standalone="no"?>
<svg xmlns="http://www.w3.org/2000/svg" width="640" height="320" viewBox="0 0 640 320">
  <rect width="640" height="320" fill="#f5f5f5"/>
  <rect x="20" y="20" width="600" height="280" rx="8" fill="#ffffff" stroke="#e0e0e0" stroke-width="2"/>
  
  <!-- Header -->
  <rect x="40" y="40" width="560" height="60" rx="4" fill="#f0f4f8"/>
  <text x="60" y="75" font-family="Arial, sans-serif" font-size="22" font-weight="bold" fill="#1e3a8a">Risk Score Configuration</text>
  <text x="60" y="95" font-family="Arial, sans-serif" font-size="14" fill="#64748b">Configure how risk is assessed across your organization</text>
  
  <!-- Risk Gauge -->
  <circle cx="120" cy="180" r="70" fill="#f8fafc" stroke="#cbd5e1" stroke-width="2"/>
  <path d="M 120 180 L 170 130 A 70 70 0 0 0 70 130 Z" fill="#3b82f6"/>
  <circle cx="120" cy="180" r="10" fill="#ffffff" stroke="#64748b" stroke-width="2"/>
  <text x="110" y="230" font-family="Arial, sans-serif" font-size="16" font-weight="bold" fill="#334155" text-anchor="middle">62%</text>
  
  <!-- Dimension Cards -->
  <rect x="220" y="130" width="160" height="40" rx="4" fill="#ffffff" stroke="#e0e0e0" stroke-width="1"/>
  <text x="240" y="155" font-family="Arial, sans-serif" font-size="14" fill="#334155">Security</text>
  
  <rect x="220" y="180" width="160" height="40" rx="4" fill="#ffffff" stroke="#e0e0e0" stroke-width="1"/>
  <text x="240" y="205" font-family="Arial, sans-serif" font-size="14" fill="#334155">Financial</text>
  
  <rect x="220" y="230" width="160" height="40" rx="4" fill="#ffffff" stroke="#e0e0e0" stroke-width="1"/>
  <text x="240" y="255" font-family="Arial, sans-serif" font-size="14" fill="#334155">Compliance</text>
  
  <!-- Comparative Section -->
  <rect x="400" y="130" width="180" height="140" rx="4" fill="#f8fafc" stroke="#e0e0e0" stroke-width="1"/>
  <text x="420" y="155" font-family="Arial, sans-serif" font-size="14" font-weight="bold" fill="#334155">Compare Companies</text>
  <rect x="420" y="170" width="140" height="30" rx="4" fill="#ffffff" stroke="#e0e0e0" stroke-width="1"/>
  <text x="430" y="190" font-family="Arial, sans-serif" font-size="12" fill="#94a3b8">Search companies...</text>
</svg>