<svg width="800" height="500" viewBox="0 0 800 500" xmlns="http://www.w3.org/2000/svg">
  <!-- Background -->
  <rect width="800" height="500" fill="#f8f9fa" rx="10" ry="10" />
  
  <!-- Header -->
  <rect x="40" y="40" width="720" height="60" fill="#e9ecef" rx="5" ry="5" />
  <text x="70" y="80" font-family="Arial" font-size="24" font-weight="bold" fill="#333">Custom Reports Builder</text>
  
  <!-- Left Panel - Report Configuration -->
  <rect x="40" y="120" width="300" height="360" fill="#ffffff" stroke="#dee2e6" stroke-width="2" rx="5" ry="5" />
  <text x="60" y="150" font-family="Arial" font-size="18" font-weight="bold" fill="#495057">Report Settings</text>
  
  <!-- Report Type -->
  <text x="60" y="185" font-family="Arial" font-size="14" font-weight="bold" fill="#495057">Report Type</text>
  <rect x="60" y="195" width="260" height="40" fill="#f8f9fa" stroke="#dee2e6" stroke-width="1" rx="5" ry="5" />
  <text x="80" y="220" font-family="Arial" font-size="14" fill="#495057">Risk Assessment Summary</text>
  <text x="300" y="220" font-family="Arial" font-size="14" fill="#8c8c8c">▼</text>
  
  <!-- Date Range -->
  <text x="60" y="255" font-family="Arial" font-size="14" font-weight="bold" fill="#495057">Date Range</text>
  <rect x="60" y="265" width="125" height="40" fill="#f8f9fa" stroke="#dee2e6" stroke-width="1" rx="5" ry="5" />
  <text x="80" y="290" font-family="Arial" font-size="14" fill="#495057">Apr 1, 2025</text>
  
  <text x="195" y="290" font-family="Arial" font-size="14" fill="#495057">to</text>
  
  <rect x="215" y="265" width="125" height="40" fill="#f8f9fa" stroke="#dee2e6" stroke-width="1" rx="5" ry="5" />
  <text x="235" y="290" font-family="Arial" font-size="14" fill="#495057">May 1, 2025</text>
  
  <!-- Metrics to Include -->
  <text x="60" y="325" font-family="Arial" font-size="14" font-weight="bold" fill="#495057">Metrics to Include</text>
  
  <rect x="60" y="335" width="20" height="20" fill="#f8f9fa" stroke="#1677ff" stroke-width="2" rx="3" ry="3" />
  <rect x="64" y="339" width="12" height="12" fill="#1677ff" rx="2" ry="2" />
  <text x="90" y="350" font-family="Arial" font-size="14" fill="#495057">Overall Risk Score</text>
  
  <rect x="60" y="365" width="20" height="20" fill="#f8f9fa" stroke="#1677ff" stroke-width="2" rx="3" ry="3" />
  <rect x="64" y="369" width="12" height="12" fill="#1677ff" rx="2" ry="2" />
  <text x="90" y="380" font-family="Arial" font-size="14" fill="#495057">Compliance Status</text>
  
  <rect x="60" y="395" width="20" height="20" fill="#f8f9fa" stroke="#1677ff" stroke-width="2" rx="3" ry="3" />
  <rect x="64" y="399" width="12" height="12" fill="#1677ff" rx="2" ry="2" />
  <text x="90" y="410" font-family="Arial" font-size="14" fill="#495057">Security Incidents</text>
  
  <rect x="60" y="425" width="20" height="20" fill="#f8f9fa" stroke="#dee2e6" stroke-width="1" rx="3" ry="3" />
  <text x="90" y="440" font-family="Arial" font-size="14" fill="#495057">Financial Stability</text>
  
  <!-- Generate Button -->
  <rect x="60" y="455" width="260" height="40" fill="#1677ff" rx="5" ry="5" />
  <text x="165" y="480" font-family="Arial" font-size="14" font-weight="bold" fill="#ffffff" text-anchor="middle">Generate Report</text>
  
  <!-- Right Panel - Preview -->
  <rect x="360" y="120" width="400" height="360" fill="#ffffff" stroke="#dee2e6" stroke-width="2" rx="5" ry="5" />
  <text x="380" y="150" font-family="Arial" font-size="18" font-weight="bold" fill="#495057">Report Preview</text>
  
  <!-- Report Header Preview -->
  <rect x="380" y="170" width="360" height="60" fill="#f8f9fa" stroke="#dee2e6" stroke-width="1" rx="5" ry="5" />
  <text x="400" y="195" font-family="Arial" font-size="16" font-weight="bold" fill="#495057">Risk Assessment Summary</text>
  <text x="400" y="215" font-family="Arial" font-size="12" fill="#8c8c8c">April 1, 2025 - May 1, 2025</text>
  
  <!-- Report Body Preview -->
  <rect x="380" y="240" width="360" height="200" fill="#ffffff" stroke="#dee2e6" stroke-width="1" rx="0" ry="0" />
  
  <!-- Risk Score Section -->
  <text x="400" y="265" font-family="Arial" font-size="14" font-weight="bold" fill="#495057">Overall Risk Score</text>
  
  <!-- Risk Score Gauge -->
  <circle cx="460" cy="310" r="40" fill="none" stroke="#e9ecef" stroke-width="10" />
  <path d="M460,310 L460,310 L460,270 A40,40 0 0,1 495,325 z" fill="none" stroke="#1677ff" stroke-width="10" />
  <text x="460" y="315" font-family="Arial" font-size="16" font-weight="bold" fill="#1677ff" text-anchor="middle">72</text>
  
  <!-- Compliance Status Section -->
  <text x="550" y="265" font-family="Arial" font-size="14" font-weight="bold" fill="#495057">Compliance Status</text>
  
  <!-- Simple Compliance Bars -->
  <rect x="550" y="285" width="160" height="20" fill="#f0f0f0" rx="3" ry="3" />
  <rect x="550" y="285" width="136" height="20" fill="#52c41a" rx="3" ry="3" />
  <text x="570" y="300" font-family="Arial" font-size="12" fill="#ffffff">PCI DSS: 85%</text>
  
  <rect x="550" y="315" width="160" height="20" fill="#f0f0f0" rx="3" ry="3" />
  <rect x="550" y="315" width="144" height="20" fill="#52c41a" rx="3" ry="3" />
  <text x="570" y="330" font-family="Arial" font-size="12" fill="#ffffff">GDPR: 90%</text>
  
  <rect x="550" y="345" width="160" height="20" fill="#f0f0f0" rx="3" ry="3" />
  <rect x="550" y="345" width="128" height="20" fill="#fa8c16" rx="3" ry="3" />
  <text x="570" y="360" font-family="Arial" font-size="12" fill="#ffffff">ISO 27001: 80%</text>
  
  <!-- Security Incidents Section -->
  <text x="400" y="385" font-family="Arial" font-size="14" font-weight="bold" fill="#495057">Security Incidents</text>
  <text x="400" y="410" font-family="Arial" font-size="14" fill="#495057">Critical: 0</text>
  <text x="400" y="430" font-family="Arial" font-size="14" fill="#495057">Major: 2</text>
  <text x="500" y="410" font-family="Arial" font-size="14" fill="#495057">Minor: 5</text>
  <text x="500" y="430" font-family="Arial" font-size="14" fill="#495057">Info: 12</text>
</svg>