<svg width="240" height="240" viewBox="0 0 240 240" fill="none" xmlns="http://www.w3.org/2000/svg">
<rect width="240" height="240" fill="black" fill-opacity="0.1"/>
<path d="M54 180V60H120V86.6667H186V180H54ZM67.2 166.667H80.4V153.333H67.2V166.667ZM67.2 140H80.4V126.667H67.2V140ZM67.2 113.333H80.4V100H67.2V113.333ZM67.2 86.6667H80.4V73.3333H67.2V86.6667ZM93.6 166.667H106.8V153.333H93.6V166.667ZM93.6 140H106.8V126.667H93.6V140ZM93.6 113.333H106.8V100H93.6V113.333ZM93.6 86.6667H106.8V73.3333H93.6V86.6667ZM120 166.667H172.8V100H120V113.333H133.2V126.667H120V140H133.2V153.333H120V166.667ZM146.4 126.667V113.333H159.6V126.667H146.4ZM146.4 153.333V140H159.6V153.333H146.4Z" fill="#858585"/>
</svg>
