<svg xmlns:xlink="http://www.w3.org/1999/xlink" xmlns="http://www.w3.org/2000/svg" data-testid="logomark" class="v9zxk21" data-name="Layer 1" viewBox="0 0 30.99252 30.99532" width="32"  height="32" ><g data-name="logo-mark" fill="#1F1F25"><path class="logomarkSVGFill" data-name="Shape-4" d="M1.641,23.58009l12.71,7.09a1.7,1.7,0,0,0,2,0l13.49-7.58c.47-.3.8-.54.8-1.08a1.11,1.11,0,0,0-.65-.94l-3.62-2.37,3.45-1.95a2,2,0,0,0,1.16-1.65v-5.26a1.94,1.94,0,0,0-1.18-2l-13.24-7.45a2.15,2.15,0,0,0-2.47,0l-13.25,7.55a1.43,1.43,0,0,0-.78,1.26c0,.64.68,1.13.78,1.21l3.45,2-3.65,2.17a1.3,1.3,0,0,0-.61,1h0v5.08A2.74,2.74,0,0,0,1.641,23.58009Zm26.62-1.48-12.91,7.09-12.47-6.89,3.9-2.19,8.1,4.54a1,1,0,0,0,.9,0l8.75-5Zm1.08-7.55-3.48-2.09,3.48-2Zm-13-12.21,11.84,6.81-3.9,2.34-8-4.76Zm-1,5.87,7.21,4.3-7.21,4.07h0l-7.36-4.17,7.39-4.2Zm-13.07.99,12.13-6.86v4.39l-8.42,4.67Zm3.83,4.27,8.78,4.93a1,1,0,0,0,.93,0l8.42-4.93,3.8,2.27-12.7,7.08-12.91-7.28Zm-4.41,3.72,3.41,1.9-3.41,1.91Z" fill="#1F1F25"></path></g></svg>
