<svg width="128" height="49" viewBox="0 0 128 49" fill="none" xmlns="http://www.w3.org/2000/svg">
<path d="M0 48.4846H15.1741C12.3764 47.3742 8.53333 42.9277 8.53333 34.5244V8.61359L44.9636 48.7619V31.5357L16.2926 0H0C2.79771 1.38768 6.64178 5.83314 6.64178 12.5714V34.5214C6.64178 42.9247 2.79467 47.3702 0 48.4815V48.4846ZM88.1026 29.7976L87.1223 32.1595H104.043L111.734 48.4846H127.677C124.879 46.5412 122.084 43.4834 118.099 35.0791L101.527 0H99.778L94.6753 12.3632L102.925 29.7976H88.1026ZM51.7435 17.087V48.4825H87.7542L83.4895 40.5648C77.1962 45.7742 71.6719 46.9537 63.1426 46.9537V24.2387C67.2691 24.2387 71.9553 25.0037 76.2199 28.547V18.6149C72.0935 22.0861 67.8979 22.7139 63.1426 22.7139V1.52889C72.5831 1.52889 78.9455 3.61244 83.7719 7.50222L87.8984 0H45.4532C49.2282 2.98565 51.7465 7.01562 51.7465 17.086L51.7435 17.087Z" fill="#034870"/>
</svg>
