<svg width="104" height="28" viewBox="0 0 104 28" fill="none" xmlns="http://www.w3.org/2000/svg">
<path d="M4.11091 11.9259H7.96489V15.8148H4.11091V11.9259Z" fill="#4965EC"/>
<path fill-rule="evenodd" clip-rule="evenodd" d="M23.8947 14C23.8947 19.5842 19.4084 24.1111 13.8743 24.1111C8.95555 24.1111 4.85962 20.5316 4.01429 15.8148H0.115504C0.99735 22.6895 6.82123 28 13.8743 28C21.5369 28 27.7486 21.732 27.7486 14C27.7486 6.26801 21.5369 0 13.8743 0C6.91015 0 1.14439 5.17749 0.151206 11.9259H4.06422C5.01052 7.33757 9.04646 3.88889 13.8743 3.88889C19.4084 3.88889 23.8947 8.41579 23.8947 14ZM8.50022e-05 13.9505C2.83495e-05 13.967 0 13.9835 0 14C0 14.0165 2.83495e-05 14.033 8.50022e-05 14.0495V13.9505Z" fill="#4965EC"/>
<path d="M97.2941 9.86481C101.199 9.86481 104 12.6389 104 16.4759V22.8537H101.379V21.0907C100.352 22.3093 98.6558 23.087 96.7288 23.087C93.1832 23.087 90.5882 20.313 90.5882 16.4759C90.5882 12.6389 93.3887 9.86481 97.2941 9.86481ZM97.3198 20.7796C99.6835 20.7796 101.379 18.9907 101.379 16.4759C101.379 13.987 99.6835 12.1722 97.3198 12.1722C94.9817 12.1722 93.2859 13.987 93.2859 16.4759C93.2859 18.9907 94.9817 20.7796 97.3198 20.7796Z" fill="black"/>
<path d="M85.2301 4.91296H87.8508V22.8537H85.2301V4.91296Z" fill="black"/>
<path d="M82.5119 16.5019C82.5119 16.7611 82.4862 17.0463 82.4348 17.3056H71.6436C71.9777 19.4315 73.622 20.9093 75.8059 20.9093C77.6045 20.9093 79.1461 19.7685 79.6342 18.2389H82.3063C81.5869 21.0648 78.8891 23.087 75.7803 23.087C71.8749 23.087 69.0229 20.313 69.0229 16.4759C69.0229 12.6389 71.8749 9.86481 75.7803 9.86481C79.6856 9.86481 82.4862 12.6389 82.5119 16.5019ZM75.8059 12.0426C73.7505 12.0426 72.1832 13.3648 71.7207 15.2574H79.9682C79.5315 13.3648 77.8871 12.0426 75.8059 12.0426Z" fill="black"/>
<path d="M65.2288 10.0981H68.0293L63.0449 22.8537H59.9103L54.9258 10.0981H57.7264L61.4776 20.2352L65.2288 10.0981Z" fill="black"/>
<path d="M41.8512 22.8537V15.387C41.8512 12.0944 44.1893 9.86481 47.6065 9.86481C51.0494 9.86481 53.4131 12.0944 53.4131 15.387V22.8537H50.7667V15.387C50.7667 13.3907 49.5335 12.0685 47.6322 12.0685C45.7309 12.0685 44.4976 13.3907 44.4976 15.387V22.8537H41.8512Z" fill="black"/>
<path d="M38.2572 4.91296V22.8537H35.4566V4.91296H38.2572Z" fill="black"/>
</svg>
