<?xml version="1.0" encoding="UTF-8" standalone="no"?>
<svg width="300" height="300" viewBox="0 0 300 300" fill="none" xmlns="http://www.w3.org/2000/svg">
  <!-- Light blue background -->
  <rect width="300" height="300" rx="15" fill="#EEF3FB" />
  
  <!-- Image icon -->
  <path d="M150 125C145.357 125 141.667 128.689 141.667 133.333C141.667 137.977 145.357 141.667 150 141.667C154.643 141.667 158.333 137.977 158.333 133.333C158.333 128.689 154.643 125 150 125ZM150 158.333C137.5 158.333 125 164.583 125 177.083V183.333H175V177.083C175 164.583 162.5 158.333 150 158.333ZM91.6667 100C83.3333 100 75 108.333 75 116.667V183.333C75 191.667 83.3333 200 91.6667 200H208.333C216.667 200 225 191.667 225 183.333V116.667C225 108.333 216.667 100 208.333 100H91.6667ZM208.333 183.333H91.6667V116.667H208.333V183.333Z" fill="#A2BEF0"/>
  
  <!-- Text notification -->
  <rect x="75" y="210" width="150" height="40" rx="5" fill="#A2BEF0" opacity="0.8"/>
  <text x="150" y="235" font-family="Arial, sans-serif" font-size="14" fill="#2F5597" text-anchor="middle" dominant-baseline="middle">Image Not Found</text>
  
  <!-- Dashed border -->
  <rect x="5" y="5" width="290" height="290" rx="12" stroke="#A2BEF0" stroke-width="3" stroke-dasharray="10 5" fill="none"/>
</svg>