<svg width="600" height="340" viewBox="0 0 600 340" xmlns="http://www.w3.org/2000/svg">
  <rect width="600" height="340" fill="#f8f9fa"/>
  <text x="300" y="50" font-family="Arial" font-size="24" text-anchor="middle" font-weight="bold" fill="#1a56db">Claims Distribution by Category</text>
  <rect x="50" y="80" width="500" height="220" rx="8" fill="#ffffff" stroke="#e2e8f0" stroke-width="2"/>
  
  <!-- Pie Chart Section -->
  <circle cx="200" cy="190" r="100" fill="none" stroke="#e2e8f0" stroke-width="2"/>
  
  <!-- Pie Chart Segments -->
  <path d="M 200 190 L 200 90 A 100 100 0 0 1 289 147 Z" fill="#3182ce" stroke="#ffffff" stroke-width="2"/>
  <path d="M 200 190 L 289 147 A 100 100 0 0 1 289 233 Z" fill="#7f9cf5" stroke="#ffffff" stroke-width="2"/>
  <path d="M 200 190 L 289 233 A 100 100 0 0 1 200 290 Z" fill="#9ae6b4" stroke="#ffffff" stroke-width="2"/>
  <path d="M 200 190 L 200 290 A 100 100 0 0 1 111 233 Z" fill="#fbd38d" stroke="#ffffff" stroke-width="2"/>
  <path d="M 200 190 L 111 233 A 100 100 0 0 1 111 147 Z" fill="#f687b3" stroke="#ffffff" stroke-width="2"/>
  <path d="M 200 190 L 111 147 A 100 100 0 0 1 200 90 Z" fill="#fc8181" stroke="#ffffff" stroke-width="2"/>
  
  <!-- Legend -->
  <rect x="350" y="110" width="16" height="16" fill="#3182ce"/>
  <text x="376" y="124" font-family="Arial" font-size="14" fill="#2d3748">Cyber Security (35%)</text>
  
  <rect x="350" y="140" width="16" height="16" fill="#7f9cf5"/>
  <text x="376" y="154" font-family="Arial" font-size="14" fill="#2d3748">Data Privacy (22%)</text>
  
  <rect x="350" y="170" width="16" height="16" fill="#9ae6b4"/>
  <text x="376" y="184" font-family="Arial" font-size="14" fill="#2d3748">Operational (18%)</text>
  
  <rect x="350" y="200" width="16" height="16" fill="#fbd38d"/>
  <text x="376" y="214" font-family="Arial" font-size="14" fill="#2d3748">Financial (12%)</text>
  
  <rect x="350" y="230" width="16" height="16" fill="#f687b3"/>
  <text x="376" y="244" font-family="Arial" font-size="14" fill="#2d3748">Compliance (8%)</text>
  
  <rect x="350" y="260" width="16" height="16" fill="#fc8181"/>
  <text x="376" y="274" font-family="Arial" font-size="14" fill="#2d3748">Other (5%)</text>
</svg>