<svg width="600" height="340" viewBox="0 0 600 340" xmlns="http://www.w3.org/2000/svg">
  <rect width="600" height="340" fill="#f8f9fa"/>
  <text x="300" y="50" font-family="Arial" font-size="24" text-anchor="middle" font-weight="bold" fill="#1a56db">Claims Risk Analysis</text>
  <rect x="50" y="80" width="500" height="220" rx="8" fill="#ffffff" stroke="#e2e8f0" stroke-width="2"/>
  
  <!-- Claims Summary Section -->
  <text x="75" y="110" font-family="Arial" font-size="16" font-weight="bold" fill="#2d3748">Claims Summary</text>
  <rect x="75" y="125" width="220" height="155" rx="6" fill="#f7fafc" stroke="#e2e8f0"/>
  
  <!-- Claims Distribution Section -->
  <text x="325" y="110" font-family="Arial" font-size="16" font-weight="bold" fill="#2d3748">Claims Distribution</text>
  <circle cx="400" cy="200" r="70" fill="none" stroke="#e2e8f0" stroke-width="2"/>
  <path d="M 400 200 L 400 130 A 70 70 0 0 1 462 222 Z" fill="#3182ce" stroke="#ffffff"/>
  <path d="M 400 200 L 462 222 A 70 70 0 0 1 400 270 Z" fill="#7f9cf5" stroke="#ffffff"/>
  <path d="M 400 200 L 400 270 A 70 70 0 0 1 338 222 Z" fill="#9ae6b4" stroke="#ffffff"/>
  <path d="M 400 200 L 338 222 A 70 70 0 0 1 400 130 Z" fill="#fbd38d" stroke="#ffffff"/>
  
  <!-- Claims Table Preview -->
  <rect x="75" y="150" width="220" height="20" fill="#edf2f7"/>
  <text x="90" y="165" font-family="Arial" font-size="12" fill="#4a5568">Type</text>
  <text x="170" y="165" font-family="Arial" font-size="12" fill="#4a5568">Count</text>
  <text x="240" y="165" font-family="Arial" font-size="12" fill="#4a5568">Risk</text>
  
  <rect x="75" y="175" width="220" height="20" fill="#ffffff"/>
  <text x="90" y="190" font-family="Arial" font-size="12" fill="#4a5568">Cyber</text>
  <text x="170" y="190" font-family="Arial" font-size="12" fill="#4a5568">124</text>
  <text x="240" y="190" font-family="Arial" font-size="12" fill="#e53e3e">High</text>
  
  <rect x="75" y="200" width="220" height="20" fill="#f7fafc"/>
  <text x="90" y="215" font-family="Arial" font-size="12" fill="#4a5568">Operations</text>
  <text x="170" y="215" font-family="Arial" font-size="12" fill="#4a5568">78</text>
  <text x="240" y="215" font-family="Arial" font-size="12" fill="#ed8936">Medium</text>
  
  <rect x="75" y="225" width="220" height="20" fill="#ffffff"/>
  <text x="90" y="240" font-family="Arial" font-size="12" fill="#4a5568">Compliance</text>
  <text x="170" y="240" font-family="Arial" font-size="12" fill="#4a5568">56</text>
  <text x="240" y="240" font-family="Arial" font-size="12" fill="#ed8936">Medium</text>
  
  <rect x="75" y="250" width="220" height="20" fill="#f7fafc"/>
  <text x="90" y="265" font-family="Arial" font-size="12" fill="#4a5568">Financial</text>
  <text x="170" y="265" font-family="Arial" font-size="12" fill="#4a5568">42</text>
  <text x="240" y="265" font-family="Arial" font-size="12" fill="#38a169">Low</text>
</svg>