<svg width="225" height="225" viewBox="0 0 225 225" fill="none" xmlns="http://www.w3.org/2000/svg">
<rect width="225" height="225" fill="#FF0083"/>
<path fill-rule="evenodd" clip-rule="evenodd" d="M82.0221 168.944C67.2636 168.394 66.4494 156.862 80.0038 153.885C92.3894 151.164 102.719 155.519 102.719 155.519C102.719 155.519 99.5938 169.599 82.0221 168.944ZM147.56 52.3743C156.088 53.0786 155.447 65.0004 153.126 72.4753C146.326 94.3878 130.06 95.0416 130.06 95.0416C130.06 95.0416 135.206 51.3541 147.56 52.3743ZM128.619 105.513C128.619 105.513 155.961 105.696 165.273 73.2845C170.692 54.422 163.018 38.346 147.017 38.006C130.86 37.6628 118.343 52.0395 112.478 95.008C112.478 95.008 96.8612 92.9373 89.9621 80.5599C86.6984 74.7035 81.7742 77.4291 83.3098 82.9949C88.501 101.815 111.494 104.845 111.494 104.845C111.494 104.845 110.542 113.177 109.12 123.375C107.74 133.269 105.372 145.718 105.372 145.718C105.372 145.718 90.8659 141.108 75.4313 144.348C51.7121 149.328 49.1023 178.884 78.1256 181.803C112.161 185.224 118.587 161.574 118.587 161.574C118.587 161.574 125.274 164.838 134.763 173.364C145.278 182.813 150.083 188.674 152.264 186.574C154.654 184.271 149.389 176.231 139.642 165.977C128.613 154.375 120.979 151.38 120.979 151.38C120.979 151.38 122.804 143.705 124.793 131.251C126.899 118.069 128.619 105.513 128.619 105.513Z" fill="white"/>
</svg>
