<svg width="132" height="132" viewBox="0 0 132 132" fill="none" xmlns="http://www.w3.org/2000/svg">
<path d="M0 0C23.1 0 41.8 18.7 41.8 41.8C41.8 64.9 23.1 83.6 0 83.6V0Z" fill="#ED6B49"/>
<path d="M131.9 131.9C108.8 131.9 90.0996 113.2 90.0996 90.1C90.0996 67 108.8 48.3 131.9 48.3V131.9Z" fill="#ED6B49"/>
<path d="M0 131.9C0 108.8 18.7 90.1 41.8 90.1C64.9 90.1 83.6 108.8 83.6 131.9H0Z" fill="#ED6B49"/>
<path d="M131.901 0C131.901 23.1 113.201 41.8 90.1008 41.8C67.0008 41.8 48.3008 23.1 48.3008 0H131.901Z" fill="#ED6B49"/>
</svg>
