<svg width="91" height="90" viewBox="0 0 91 90" fill="none" xmlns="http://www.w3.org/2000/svg">
<path fill-rule="evenodd" clip-rule="evenodd" d="M61.6904 44.8982C61.6904 53.7586 54.4609 60.8877 45.5004 60.8877C36.5399 60.8877 29.3104 53.7586 29.3104 44.8982C29.3104 36.0377 36.5399 28.9086 45.5004 28.9086C54.4609 28.9086 61.6904 36.0377 61.6904 44.8982ZM21.8773 77.9976C22.7937 77.3865 23.6083 76.7755 24.6265 76.2663C38.78 67.8132 55.8864 68.4242 69.1235 76.2663C69.6327 76.5718 69.6327 77.2847 69.1235 77.5902C69.0217 77.5902 68.8181 77.7939 68.7162 77.7939C68.0035 78.3031 67.1889 78.7105 66.4761 79.2197C61.6904 82.0714 56.4974 84.5157 51.1007 86.4507C47.5369 87.7747 43.7694 88.7931 39.7983 89.7097C36.1326 90.5245 32.2633 89.6079 29.4122 87.1636C26.663 84.8212 24.1174 82.3769 21.6736 79.8308C21.1645 79.3216 21.2663 78.405 21.8773 77.9976Z" fill="#3F454F"/>
<path fill-rule="evenodd" clip-rule="evenodd" d="M66.5775 13.7337C67.494 13.2245 68.4104 12.6135 69.3268 12.0024C69.9377 11.595 70.0396 10.7803 69.5304 10.1692C67.0867 7.62307 64.5411 5.17881 61.7918 2.83638C58.9408 0.392115 55.0714 -0.524485 51.4058 0.290271C47.5365 1.20687 43.769 2.22532 40.1033 3.54929C34.7067 5.48434 29.6155 7.82676 24.7279 10.7803C24.0152 11.1876 23.2006 11.6969 22.4878 12.2061C22.386 12.2061 22.1823 12.4098 22.0805 12.4098C21.5714 12.7153 21.5714 13.4282 22.0805 13.7337C35.3176 21.6776 52.424 22.1868 66.5775 13.7337ZM13.8328 24.3256C13.3237 23.409 12.7127 22.4924 12.1018 21.6776C11.6945 21.0665 10.7781 20.9647 10.269 21.4739C7.72335 23.8163 5.27958 26.3625 2.83581 29.1123C0.392036 31.9639 -0.524379 35.7322 0.290212 39.3986C1.20663 43.2686 2.22487 47.0369 3.54858 50.6014C5.48323 55.8974 7.927 60.9896 10.7781 65.7763C11.1854 66.4892 11.6945 67.304 12.2036 68.0169C12.2036 68.1187 12.4073 68.3224 12.4073 68.4242C12.7127 68.9335 13.4255 68.9335 13.731 68.4242C21.6732 55.3881 22.2842 38.482 13.731 24.4274L13.8328 24.3256ZM79.0001 68.5261C78.3891 67.6095 77.7782 66.7947 77.269 65.8781C68.8177 51.8236 69.3268 34.9174 77.269 21.8813C77.5745 21.3721 78.2873 21.3721 78.5928 21.8813C78.5928 21.9831 78.7964 22.085 78.7964 22.2887C79.3055 23.0016 79.7128 23.7145 80.2219 24.5293C83.073 29.316 85.5168 34.4082 87.4514 39.7041C88.7751 43.2686 89.7934 47.0369 90.7098 50.907C91.5244 54.5734 90.608 58.3416 88.1642 61.1933C85.8223 63.9431 83.2767 66.4892 80.7311 68.8316C80.2219 69.3408 79.3055 69.239 78.8982 68.6279L79.0001 68.5261Z" fill="url(#paint0_linear_1562_2576)"/>
<defs>
<linearGradient id="paint0_linear_1562_2576" x1="36.3359" y1="1.81794" x2="51.9209" y2="75.0428" gradientUnits="userSpaceOnUse">
<stop stop-color="#C6168D"/>
<stop offset="0.3" stop-color="#762B8A"/>
</linearGradient>
</defs>
</svg>
