<svg width="47" height="47" viewBox="0 0 47 47" fill="none" xmlns="http://www.w3.org/2000/svg">
<path fill-rule="evenodd" clip-rule="evenodd" d="M18.6354 0L4.08965 3.77204L0.0809931 18.2553L5.09457 23.352L0 28.3645L3.77268 42.9111L18.2554 46.9178L23.351 41.9043L28.3646 47L42.9103 43.228L46.918 28.7437L41.9054 23.649L47 18.6364L43.2273 4.08885L28.7426 0.082173L23.649 5.09473L18.6354 0ZM9.70917 6.558L17.3715 4.57001L20.7222 7.97573L15.8357 12.7834L9.70917 6.558ZM26.5297 8.02128L29.9345 4.67198L37.5638 6.78274L31.3373 12.9081L26.5297 8.02128ZM4.6716 17.0662L6.78242 9.43802L12.9069 15.6634L8.02132 20.471L4.6716 17.0653V17.0662ZM34.2161 15.8356L40.4426 9.7083L42.4284 17.3712L39.0247 20.7215L34.2161 15.8356ZM18.7154 15.7099L23.602 10.9023L28.4086 15.7891L23.523 20.5967L18.7154 15.7099ZM10.9021 23.3975L15.7877 18.5899L20.5972 23.4767L15.7097 28.2844L10.9021 23.3975ZM26.4038 23.5233L31.2893 18.7156L36.0969 23.6025L31.2103 28.4101L26.4038 23.5233ZM4.56961 29.6288L7.97532 26.2775L12.7819 31.1654L6.55744 37.2897L4.56961 29.6288ZM18.5894 31.2109L23.476 26.4033L28.2836 31.2901L23.398 36.0977L18.5894 31.2109ZM34.0901 31.3376L38.9767 26.53L42.3274 29.9347L40.2176 37.563L34.0901 31.3376ZM9.4362 40.2183L15.6617 34.0909L20.4713 38.9777L17.0655 42.329L9.4362 40.2183ZM26.2778 39.0243L31.1633 34.2166L37.2888 40.443L29.6275 42.43L26.2778 39.0243Z" fill="#111111"/>
</svg>
