<svg width="40" height="40" viewBox="0 0 40 40" fill="none" xmlns="http://www.w3.org/2000/svg">
<path d="M33.3159 0H6.68409C2.99216 0 0 2.99216 0 6.68409V33.3159C0 37.0078 2.99216 40 6.68409 40H33.3159C37.0078 40 40 37.0078 40 33.3159V6.68409C40 2.99216 37.0078 0 33.3159 0ZM32.7287 30.6173C32.7287 31.7836 31.7836 32.7287 30.6173 32.7287H9.38267C8.21637 32.7287 7.27127 31.7836 7.27127 30.6173V9.38267C7.27127 8.21637 8.21637 7.27126 9.38267 7.27126H30.6173C31.7836 7.27126 32.7287 8.21637 32.7287 9.38267V30.6173ZM15.7571 25.4293C15.0855 25.4293 14.5466 24.8864 14.5466 24.2148V15.737C14.5466 15.0654 15.0855 14.5184 15.7571 14.5184H24.2469C24.9145 14.5184 25.4575 15.0613 25.4575 15.737V24.2107C25.4575 24.8824 24.9145 25.4253 24.2469 25.4253H15.7571V25.4293Z" fill="#1A1A1A"/>
</svg>
