<svg width="184" height="240" viewBox="0 0 184 240" fill="none" xmlns="http://www.w3.org/2000/svg">
<path d="M105.658 68.8317C104.118 68.512 102.691 67.3745 102.032 65.3754C101.45 63.6134 101.625 61.693 101.953 59.8662C103.65 50.4515 105.17 41.0069 107.371 31.6738C109.154 24.1147 111.661 16.6115 116.258 10.2576C119.564 5.68774 124.356 1.76626 129.906 0.377758C139.38 -1.99286 143.32 7.2605 140.029 15.1074C137.251 21.7302 130.535 25.0959 125.598 29.857C116.573 38.5586 113.754 53.2564 111.145 64.9939C110.483 67.9801 107.944 69.3068 105.658 68.8317Z" fill="url(#paint0_linear_1504_692)"/>
<path d="M88.1881 56.8262C84.8842 56.7007 81.654 56.2346 78.6101 54.4925C75.7384 52.85 71.9484 49.9226 68.3876 51.1637C64.48 52.5253 62.967 57.9538 59.935 60.6082C55.6709 64.3405 50.4795 66.3794 45.6755 69.2411C41.51 71.7222 37.5088 74.4245 33.7477 77.4904C26.2793 83.5793 19.776 90.8425 14.5517 98.9404C4.41586 114.649 -0.661075 133.314 0.0690334 151.991C2.09999 203.962 47.1487 244.124 99.6647 239.661C146.554 235.676 183.194 196.144 183.524 149.181C183.635 133.285 179.616 117.477 171.815 103.621C164.271 90.221 153.331 78.8132 140.28 70.6843C126.919 62.3623 111.476 57.5942 95.7501 56.9288C93.2182 56.8212 90.6822 56.9209 88.1881 56.8262Z" fill="url(#paint1_linear_1504_692)"/>
<path d="M25.1048 22.5722C25.9515 20.0611 27.2772 17.7802 29.2474 16.1695C33.0643 13.0479 38.694 13.6027 41.8535 17.3807C49.3488 26.3443 43.6723 40.0739 43.3735 50.3911C43.1215 59.0836 46.0429 68.0661 49.547 75.7456C50.2263 77.2347 51.3608 78.7507 51.571 80.451C51.9226 83.3017 50.6885 85.6504 48.4842 86.7401C44.742 88.5908 42.3515 84.6643 40.8086 81.8704C37.2457 75.416 34.2048 68.4754 31.3302 61.6873C28.3709 54.699 25.8698 47.4626 24.6377 39.9534C24.4165 38.6027 24.2353 37.2461 24.1008 35.8845C23.9783 34.6514 23.8936 33.4143 23.8478 32.1762C23.7383 29.18 24.051 25.6978 25.1048 22.5722Z" fill="url(#paint2_linear_1504_692)"/>
<path d="M176.852 136.643C173.895 102.397 146.546 74.6774 115.853 74.7222C85.2538 74.767 62.8874 102.404 65.8128 136.46C68.7383 170.526 95.8738 198.267 126.505 198.413C157.231 198.559 179.81 170.9 176.852 136.643ZM160.841 175.47C152.94 184.319 142.148 189.366 130.471 189.728C117.328 190.128 104.405 184.792 94.0391 174.708C83.6452 164.597 77.1151 150.957 75.625 136.24C74.0472 120.657 78.5076 105.705 87.9263 95.1912C95.8439 86.3541 106.601 81.3201 118.364 80.9685C118.819 80.9555 119.276 80.9485 119.734 80.9485C132.654 80.9625 145.356 86.5673 155.451 96.751C165.553 106.942 171.874 120.511 173.224 134.904C174.667 150.273 170.132 165.067 160.841 175.47Z" fill="white"/>
<defs>
<linearGradient id="paint0_linear_1504_692" x1="99.6868" y1="65.8612" x2="134.762" y2="-0.105842" gradientUnits="userSpaceOnUse">
<stop stop-color="#0066FF"/>
<stop offset="0.2" stop-color="#1677FF"/>
<stop offset="1" stop-color="#04A6FF"/>
</linearGradient>
<linearGradient id="paint1_linear_1504_692" x1="4.19726" y1="176.147" x2="176.645" y2="113.381" gradientUnits="userSpaceOnUse">
<stop stop-color="#0066FF"/>
<stop offset="0.2" stop-color="#1677FF"/>
<stop offset="1" stop-color="#04A6FF"/>
</linearGradient>
<linearGradient id="paint2_linear_1504_692" x1="49.3359" y1="86.6147" x2="30.1735" y2="15.0996" gradientUnits="userSpaceOnUse">
<stop stop-color="#0066FF"/>
<stop offset="0.2" stop-color="#1677FF"/>
<stop offset="1" stop-color="#04A6FF"/>
</linearGradient>
</defs>
</svg>
