<svg width="88" height="88" viewBox="0 0 88 88" fill="none" xmlns="http://www.w3.org/2000/svg">
<rect width="88" height="88" fill="#008600"/>
<path d="M22.08 50.5174C22.08 42.9381 25.73 39.0442 31.61 39.0442C35.99 39.0442 38.7001 40.7478 39.6801 41.2346C40.4101 40.5045 40.89 39.2876 40.89 38.0707C40.89 35.8804 38.46 33.6901 31.37 33.6901C23.06 33.6901 16 39.531 16 50.5174C16 61.5038 22.36 67.3447 30.64 67.3447C35.75 67.3447 39.68 65.6411 40.89 65.1544V59.0701C39.68 60.0436 35.54 61.9906 31.61 61.9906C26.26 61.9906 22.08 58.0966 22.08 50.5174ZM62.59 50.274C66.24 45.8933 69.68 40.7478 72.11 34.1768L66.76 32.2299C63.35 41.5127 58.21 47.8403 52.12 52.9859V21H46.28V66.6494H52.12V59.8002C54.31 58.0966 56.26 56.3931 58.48 54.4461L63.84 63.7289C65.06 65.9193 67.0001 67.1361 69.6801 67.1361C71.1401 67.1361 72.11 66.6494 72.36 66.406L62.59 50.3088V50.274Z" fill="white"/>
</svg>
