<svg width="240" height="240" viewBox="0 0 240 240" fill="none" xmlns="http://www.w3.org/2000/svg">
<rect width="240" height="240" fill="#1EC677"/>
<path d="M132.462 198C159 198 177.808 188.079 189 179.754V143.605C172.5 156.491 153.115 163.903 135.923 163.903C108.462 163.903 89.1923 145.202 89.1923 118.289C89.1923 92.7455 106.731 74.9562 131.769 74.9562C139.962 74.9562 147 77.0088 154.5 79.0614C162.231 81.2281 170.308 83.6228 179.885 83.6228C182.885 83.6228 185.885 83.3948 188.885 82.9386V48.5C186.346 48.7281 183.923 48.9561 181.385 48.9561C172.731 48.9561 164.885 47.3596 156.692 45.6491C148.038 43.8246 139.154 42 128.654 42C107.769 42 88.3846 49.2983 74.1923 62.7544C59.0769 77.0088 51 96.8508 51 120C51 165.956 84.4615 198 132.462 198Z" fill="white"/>
</svg>