<svg width="240" height="240" viewBox="0 0 240 240" fill="none" xmlns="http://www.w3.org/2000/svg">
<rect width="240" height="240" fill="#001747"/>
<path d="M114.805 81.7417C112.028 78.8988 108.893 76.3223 105.578 73.9236C108.713 66.7273 113.55 60.2417 120 55C126.45 60.2417 131.376 66.7273 134.511 73.9236C131.107 76.2335 128.062 78.8099 125.285 81.7417C124.479 81.1198 123.762 80.4979 122.956 79.876L120.09 77.8326L117.223 79.876C116.327 80.4091 115.611 81.1198 114.805 81.7417ZM91.6938 75.8781C86.8567 82.5413 83.9902 90.093 83.0049 97.8223C87.9316 99.688 92.5 102.176 96.7101 105.019C99.3974 98.6219 103.339 92.7583 108.265 87.6054C103.697 82.8079 98.0537 78.8099 91.6938 75.8781ZM114.088 123.498C115.342 122.787 116.596 122.165 117.85 121.543L120 120.566L122.15 121.543C123.404 122.165 124.658 122.787 125.912 123.498C128.689 118.967 131.914 114.791 135.855 111.149C132.899 102.62 127.524 94.8017 120 88.7603C112.565 94.8017 107.101 102.531 104.235 111.06C108.086 114.702 111.401 118.878 114.088 123.498ZM156.995 97.8223C156.01 90.093 153.143 82.5413 148.306 75.8781C141.857 78.8099 136.303 82.8079 131.735 87.6054C136.661 92.7583 140.603 98.7107 143.29 105.019C147.5 102.176 152.068 99.7769 156.995 97.8223ZM133.436 128.384C137.647 131.494 141.319 135.136 144.544 139.223C151.8 134.87 159.772 132.027 168.192 130.605C168.55 121.81 166.311 113.103 161.653 105.196C149.381 109.638 139.438 117.812 133.436 128.384ZM106.653 128.384C100.562 117.812 90.6189 109.638 78.4365 105.196C73.6889 113.103 71.5391 121.81 71.8078 130.517C80.228 131.938 88.2899 134.781 95.456 139.134C98.6808 135.136 102.443 131.494 106.653 128.384ZM124.568 184C151.262 181.957 172.671 162.5 175 138.157C164.52 138.957 154.577 142.51 146.156 148.463L142.125 151.306L139.438 147.308C134.601 140.112 127.883 134.159 120 129.983C112.117 134.159 105.399 140.112 100.562 147.308L97.8746 151.306L93.8436 148.463C85.3339 142.51 75.4805 138.957 65 138.157C67.329 162.589 88.7378 181.957 115.432 184H124.568Z" fill="#FA6B54"/>
</svg>
