<svg width="240" height="240" viewBox="0 0 240 240" fill="none" xmlns="http://www.w3.org/2000/svg">
<rect width="240" height="240" fill="#B2FCE4"/>
<path d="M184.34 82.844L140.464 58.5138C127.584 51.372 111.486 60.2966 111.486 74.5906V77.0866C111.486 79.3413 112.74 81.4282 114.77 82.5503L123.055 87.1437C125.488 88.4966 128.522 86.8082 128.522 84.113V77.9046C128.522 74.8004 132.017 72.8602 134.811 74.4123L172.812 95.4915C175.61 97.0436 175.61 100.924 172.812 102.466L134.811 123.545C132.017 125.097 128.522 123.157 128.522 120.052V116.749C128.522 102.455 112.424 93.52 99.5358 100.672L55.6603 125.002C42.7799 132.144 42.7799 150.014 55.6603 157.156L99.5358 181.486C112.412 188.628 128.522 179.703 128.522 165.409V162.913C128.522 160.659 127.268 158.582 125.238 157.45L116.953 152.846C114.521 151.493 111.486 153.181 111.486 155.877V162.085C111.486 165.189 107.995 167.129 105.198 165.577L67.1957 144.498C64.4022 142.946 64.4022 139.066 67.1957 137.514L105.198 116.434C107.995 114.882 111.486 116.822 111.486 119.927V123.23C111.486 137.524 127.584 146.459 140.464 139.307L184.34 114.977C197.22 107.856 197.22 89.9857 184.34 82.844Z" fill="black"/>
</svg>
