<svg width="56" height="40" viewBox="0 0 56 40" fill="none" xmlns="http://www.w3.org/2000/svg">
<path d="M35.5023 39.9943C32.5263 39.9943 29.8054 38.3023 28.0822 35.4187C26.3589 38.2968 23.638 39.9943 20.662 39.9943H20.611C17.3629 39.9718 14.4436 37.937 12.7883 34.5474V34.5249L0 7.54355L16.3085 0L28.0652 24.7162L39.6971 0L56 7.53792L43.3817 34.5531C41.7264 37.9427 38.8071 39.9775 35.5591 40H35.5081M31.8348 32.6362C32.7248 34.3958 34.0683 35.4019 35.5081 35.4019H35.525C36.982 35.3907 38.3254 34.362 39.1983 32.5632L49.8552 9.76953L41.9475 6.11017L30.6444 30.1292L31.8404 32.6362H31.8348ZM16.9774 32.5632C17.856 34.362 19.1939 35.3962 20.645 35.4019H20.6677C22.1132 35.4019 23.451 34.3958 24.3466 32.642L25.5199 30.146L14.0808 6.10455L6.17876 9.75827L16.9718 32.5519L16.9774 32.5632Z" fill="black"/>
</svg>
