<svg width="133" height="73" viewBox="0 0 133 73" fill="none" xmlns="http://www.w3.org/2000/svg">
<path d="M66.3016 72.1004C87.3016 54.1004 116.802 36.6004 133.002 30.3004C130.502 28.7004 126.602 26.4004 122.202 23.9004C101.302 30.8004 76.9016 46.1004 55.1016 63.4004C58.8016 66.2004 62.7016 69.1004 66.3016 72.1004Z" fill="#E31837"/>
<path d="M56.6984 23.1996C53.5984 21.6996 50.1984 20.2996 47.5984 19.0996C39.6984 22.9996 29.3984 28.8996 16.3984 38.1996C19.1984 39.6996 22.1984 41.4996 25.3984 43.2996C35.3984 35.8996 45.4984 28.8996 56.6984 23.1996Z" fill="#012169"/>
<path d="M75.3992 14.6C71.5992 12.5 58.3992 7.6 49.2992 5.5C46.5992 6.5 42.7992 8 40.1992 9.1C43.4992 10 55.7992 13.3 66.2992 18.6C68.9992 17.3 72.7992 15.7 75.3992 14.6Z" fill="#E31837"/>
<path d="M30.7 13.3008C19 18.7008 6.7 26.1008 0 30.4008C2.4 31.5008 4.79998 32.4008 8.09998 34.0008C22.9 24.0008 34.5 17.9008 39.1 15.9008C35.8 14.7008 32.7 13.9008 30.7 13.3008Z" fill="#012169"/>
<path d="M84.1984 11.5C86.8984 10.6 89.9984 9.8 92.6984 9C84.8984 5.7 75.0984 2.2 66.2984 0C64.8984 0.4 60.6984 1.5 57.7984 2.4C60.7984 3.3 70.6984 5.6 84.1984 11.5ZM34.8984 49.1C38.0984 51 41.4984 53.6 44.7984 55.8C66.6984 38.8 88.2984 25.7 111.998 18.3C108.698 16.6 105.798 15.1 102.098 13.3C87.8984 16.9 63.5984 26.6 34.8984 49.1Z" fill="#E31837"/>
</svg>
