<svg width="240" height="240" viewBox="0 0 240 240" fill="none" xmlns="http://www.w3.org/2000/svg">
<rect width="240" height="240" fill="#00D9C5"/>
<path d="M99.2308 105.386C108.308 105.386 114.615 111.309 114.923 119.924C114.923 124.001 113.385 127.694 110.538 130.386C107.505 133.181 103.509 134.697 99.3846 134.617C95 134.617 91 133.078 88.1538 130.386C86.766 129.024 85.6687 127.394 84.9283 125.596C84.1879 123.798 83.8198 121.869 83.8462 119.924C83.8462 115.847 85.3846 112.155 88.1538 109.463C91.2193 106.737 95.207 105.279 99.3077 105.386H99.2308ZM143.615 106.155C147.077 106.155 149.923 107.078 151.846 108.847C153.692 110.694 154.769 113.309 154.769 116.54C154.769 123.155 150.615 127.309 143.923 127.309L143.615 127.386H138.846V133.924H130.538V106.078H143.615V106.155ZM68.2308 106.155V107.078C68.2308 112.386 62.8462 117.54 59 121.309C57.6154 122.617 56.3846 123.847 55.6154 124.847L55.4615 125.078L55 125.617H68.0769V133.847H40V132.847C40 127.617 44.8462 122.847 48.7692 119.001C50.3846 117.463 51.8462 116.155 52.6154 115.001V114.847L53 114.309H40.9231V106.078H68.1538L68.2308 106.155ZM189.308 105.924L200 133.77H191.308L189.615 129.309H178.077L176.308 133.77H167.692L178.308 106.001H189.385L189.308 105.924ZM99.2308 113.309C98.3592 113.299 97.4943 113.463 96.687 113.791C95.8797 114.12 95.1464 114.607 94.53 115.224C93.9136 115.84 93.4267 116.573 93.0979 117.381C92.7691 118.188 92.6051 119.053 92.6154 119.924C92.6154 121.679 93.3124 123.361 94.553 124.602C95.7936 125.843 97.4763 126.54 99.2308 126.54C100.985 126.54 102.668 125.843 103.909 124.602C105.149 123.361 105.846 121.679 105.846 119.924C105.846 118.17 105.149 116.487 103.909 115.247C102.668 114.006 100.985 113.309 99.2308 113.309ZM183.846 114.155L180.538 122.847H187.154L183.846 114.155ZM143.615 113.309H138.846V120.463H143.615C145.692 120.463 147.077 118.924 147.077 116.77C147.077 114.694 145.692 113.309 143.615 113.309Z" fill="black"/>
</svg>
