<svg width="26" height="32" viewBox="0 0 26 32" fill="none" xmlns="http://www.w3.org/2000/svg">
<path fill-rule="evenodd" clip-rule="evenodd" d="M5.91055 7.83081H0V31.7312H5.91055V7.83081ZM24.4458 9.19752C24.4458 4.12604 20.316 0 15.2395 0H0V5.10408H14.5149C16.8123 5.10408 18.7153 6.90896 18.7574 9.12724C18.7784 10.238 18.3615 11.2863 17.5836 12.079C16.8054 12.8719 15.7656 13.3089 14.6558 13.3089H9.00146C8.80072 13.3089 8.63733 13.472 8.63733 13.6728V18.2091C8.63733 18.2863 8.66116 18.36 8.70599 18.4221L18.2994 31.7313H25.3219L15.7062 18.3857C20.5487 18.1426 24.4458 14.0739 24.4458 9.19752Z" fill="#191C1F"/>
</svg>
