<svg width="100" height="100" viewBox="0 0 100 100" fill="none" xmlns="http://www.w3.org/2000/svg">
<path d="M14.8148 42.5928H28.7037V56.4817H14.8148V42.5928Z" fill="#4965EC"/>
<path fill-rule="evenodd" clip-rule="evenodd" d="M86.1111 50C86.1111 69.9436 69.9436 86.1111 50 86.1111C32.2738 86.1111 17.513 73.3271 14.4666 56.4815H0.41625C3.59423 81.0338 24.5822 100 50 100C77.6142 100 100 77.6142 100 50C100 22.3858 77.6142 0 50 0C24.9027 0 4.12414 18.491 0.544913 42.5926H14.6466C18.0568 26.2056 32.6015 13.8889 50 13.8889C69.9436 13.8889 86.1111 30.0564 86.1111 50ZM0.000306329 49.8231C0.000102166 49.882 0 49.941 0 50C0 50.059 0.000102166 50.118 0.000306329 50.1769V49.8231Z" fill="#4965EC"/>
</svg>
